inDegrees=no
num_controls=7
num_derivatives=13
num_iterations=126
num_multipliers=7
num_parameters=0
num_slacks=7
num_states=26
objective=5.988261
objective_accelerations=1.014961
objective_balance=0.062860
objective_effort=0.673211
objective_height=4.156688
objective_ligament=0.080541
solver_duration=1173.562131
status=Solve_Succeeded
success=true
DataType=double
version=3
OpenSimVersion=4.4-2022-07-23-0e9fedc
endheader
time	/jointset/ground_pelvis/pelvis_tilt/value	/jointset/ground_pelvis/pelvis_tx/value	/jointset/ground_pelvis/pelvis_ty/value	/jointset/hip_l/hip_flexion_l/value	/jointset/hip_l/hip_adduction_l/value	/jointset/hip_l/hip_rotation_l/value	/jointset/back/lumbar_extension/value	/jointset/patellofemoral_l/patellar_flexion_l/value	/jointset/knee_l/knee_flexion_l/value	/jointset/knee_l/knee_adduction_l/value	/jointset/knee_l/knee_rotation_l/value	/jointset/ankle_l/ankle_angle_l/value	/jointset/subtalar_l/subtalar_angle_l/value	/jointset/ground_pelvis/pelvis_tilt/speed	/jointset/ground_pelvis/pelvis_tx/speed	/jointset/ground_pelvis/pelvis_ty/speed	/jointset/hip_l/hip_flexion_l/speed	/jointset/hip_l/hip_adduction_l/speed	/jointset/hip_l/hip_rotation_l/speed	/jointset/back/lumbar_extension/speed	/jointset/patellofemoral_l/patellar_flexion_l/speed	/jointset/knee_l/knee_flexion_l/speed	/jointset/knee_l/knee_adduction_l/speed	/jointset/knee_l/knee_rotation_l/speed	/jointset/ankle_l/ankle_angle_l/speed	/jointset/subtalar_l/subtalar_angle_l/speed	/forceset/tau_hip_flexion_l	/forceset/tau_hip_adduction_l	/forceset/tau_hip_rotation_l	/forceset/tau_knee_flexion_l	/forceset/tau_ankle_angle_l	/forceset/tau_subtalar_angle_l	/forceset/tau_lumbar_extension	lambda_cid13_p0	lambda_cid13_p1	lambda_cid13_p2	lambda_cid13_p3	lambda_cid13_p4	lambda_cid13_p5	lambda_cid14_p0	/jointset/ground_pelvis/pelvis_tilt/accel	/jointset/ground_pelvis/pelvis_tx/accel	/jointset/ground_pelvis/pelvis_ty/accel	/jointset/hip_l/hip_flexion_l/accel	/jointset/hip_l/hip_adduction_l/accel	/jointset/hip_l/hip_rotation_l/accel	/jointset/back/lumbar_extension/accel	/jointset/patellofemoral_l/patellar_flexion_l/accel	/jointset/knee_l/knee_flexion_l/accel	/jointset/knee_l/knee_adduction_l/accel	/jointset/knee_l/knee_rotation_l/accel	/jointset/ankle_l/ankle_angle_l/accel	/jointset/subtalar_l/subtalar_angle_l/accel	gamma_cid13_p0	gamma_cid13_p1	gamma_cid13_p2	gamma_cid13_p3	gamma_cid13_p4	gamma_cid13_p5	gamma_cid14_p0
1.5	-0.06506979756112422	-0.05618451090447273	0.748087963739847	1.104044503856937	-0.3087783942631501	-0.07511808351408528	-0.8453661077786415	1.178223164109799	1.178223164109771	0.02174855141153983	-0.1745320294761103	0.231825923303233	0.07176971976153759	0.4102186930927689	0.2333483148406582	0.8927084022746972	-3.092577786691713	0.03884122669377813	-0.6456583277026505	0.7850875775481708	-3.022757821699551	-3.022757821699769	-0.4795754430455444	0.0003156806620336749	-0.529979207489496	-0.172351721457315	-0.2676562338009554	0.01122927618278666	-0.01719278839295738	-0.2943752932410576	0.09824091226454817	0.04875457534896366	0.3328154583197938	-8.543340988802973	-18.06993268306569	0.5894661035685245	-22.0038751603299	-659.5157645806469	-70.12592262061422	-1.333769887973976	1.194920018263163	1.365146804621549	-1.036017563037738	-1.521418729103437	0.3775899077379283	-0.7133955807097476	2.906430178371733	-1.890025961143862	-1.890025961143867	-0.2485108142811115	0.1401499804632299	-1.688458665839614	-0.1191956008551503	5.723538778459686e-07	3.803837779867883e-06	-1.216307733634644e-06	4.755802226271153e-07	6.85335118395244e-07	2.420410024905879e-07	7.024229473587271e-07
1.51	-0.06090869432911519	-0.05378291486954318	0.7569611673809323	1.073045404990872	-0.3083730753398325	-0.08161153764632621	-0.8373711140148731	1.147904441195962	1.147904441195954	0.01693850121683355	-0.1745257205166329	0.2264427330502007	0.07003828549122794	0.4218735089285085	0.2469502820507975	0.8817172432890495	-3.106867777329083	0.04224510805667242	-0.6529816059390486	0.8138387240325541	-3.040588261821678	-3.040588261821837	-0.4824139826895742	0.001006131055862188	-0.5464838707000851	-0.1738231943874278	-0.2575826843969073	0.01150921079482723	-0.01652144824901382	-0.2863212042463143	0.09758364264217441	0.04868944825624291	0.3225552242766896	-8.160879044665869	-18.30014104644473	0.8449370585454031	-21.83075191515736	-649.6174670741349	-69.9940948081675	-1.957998219971529	1.131554508190058	1.354724039184708	-1.162771618946967	-1.326594859463587	0.3249878079661316	-0.733373239064241	2.848589207970896	-1.669930146686056	-1.669930146677055	-0.297672209094124	0.04226204554039289	-1.605012103460673	-0.1448553880669743	6.21429966349101e-07	4.106281159126114e-06	-1.306660242471507e-06	4.714837490173745e-07	7.473043779852426e-07	4.048825178834575e-07	7.404102191817369e-07
1.52	-0.05663488451036625	-0.05124589869051673	0.7657180381216372	1.041914645092752	-0.3079330774914101	-0.08817654041980384	-0.8290907823213579	1.117419338459141	1.117419338459096	0.01210083629173181	-0.1745107531581274	0.2208997877740911	0.06829539004182071	0.4327600104427167	0.260432343660041	0.8694418221986268	-3.118909993102828	0.04577701171567721	-0.6599680559338719	0.8421551634969117	-3.056033786301358	-3.056033786301457	-0.4850983891188738	0.002047360517510834	-0.5619302121023678	-0.1746439572766993	-0.2475091349928465	0.01178914540655929	-0.01585010810550813	-0.2782671152516041	0.09692637301971491	0.04862432116310324	0.3122949902336359	-7.774826948274288	-18.54530221296472	1.119153898157256	-21.74239120923963	-639.6890665709888	-69.9602650587787	-2.693508486841113	1.041257153956832	1.341165684442198	-1.292869983992857	-1.071863756379009	0.4031943669595613	-0.6460299323953773	2.819488774366722	-1.413042832654423	-1.41304283265441	-0.217684171335205	0.2103057940263354	-1.476794304178645	0.01094640731253467	6.652553108158408e-07	4.434817602378315e-06	-1.351684833559925e-06	4.734023142277074e-07	8.126026028723717e-07	5.936417866846073e-07	7.74834220123848e-07
1.53	-0.05225603632641632	-0.04857480746200905	0.7743458820742655	1.010674569035803	-0.3074572396390379	-0.09481010542734138	-0.8205299214427645	1.08679169199266	1.086791691992689	0.007237063131777648	-0.1744839816225776	0.215207707528447	0.06654738636385529	0.4428709183732732	0.2737495728614949	0.8559225396736828	-3.128709059458913	0.04941265288796807	-0.6666794348304852	0.8699121235345267	-3.069076793490613	-3.069076793490544	-0.4876398035115403	0.003371539206190996	-0.5763005256174119	-0.1748475047796108	-0.2372740407766347	0.0117835558777646	-0.01522145625276916	-0.2705166386248801	0.09612853799203935	0.04831483563003974	0.3018115140243318	-7.473125861333227	-18.66278051947941	1.365259904800384	-21.39132301332464	-630.0075832909905	-69.76100016467366	-3.537015712843794	0.9752552093091501	1.321649392661143	-1.411938027141429	-0.8744444198322062	0.3467945179127617	-0.6730144641462081	2.738066315798306	-1.187287011395326	-1.187287011370066	-0.2690439906549327	0.1029344083728113	-1.389109510357486	-0.02025322547108071	7.035017397439138e-07	4.791077926124109e-06	-1.348548512040621e-06	4.817118581843683e-07	8.814378533877022e-07	8.099386684820543e-07	8.054722457550043e-07
1.54	-0.04778022954382941	-0.04577161437055343	0.7828324370735649	0.9793483990463716	-0.3069444362698371	-0.1015086487430833	-0.8116946376243234	1.056046143984459	1.056046143984477	0.002348541044349136	-0.1744420761996145	0.2093775322206025	0.06480049763158441	0.4521517301720294	0.2868527162496322	0.8411840315328687	-3.136128779599341	0.05317011508228402	-0.6729637175612149	0.8970397514657186	-3.079614094653231	-3.079614094652994	-0.4900481746011691	0.005074137978151041	-0.589549224540072	-0.1744209681376897	-0.2270389465604117	0.01177796634869166	-0.01459280440068646	-0.2627661619981991	0.09533070296428517	0.04800535009660807	0.2913280378150822	-7.16362774319466	-18.79663301649494	1.631120593593789	-21.1353803078716	-620.2400496802895	-69.66074029435032	-4.486806832496542	0.8752379275967179	1.298348521778733	-1.536715107166994	-0.5959945132482434	0.4275585713640119	-0.5606106992194456	2.69362235308213	-0.9119016273267959	-0.9119016273267966	-0.191075510727911	0.2859898106810068	-1.252471385702113	0.1369632362783287	7.353503519725551e-07	5.182402966800663e-06	-1.298869087999335e-06	5.009452023833544e-07	9.475853231224685e-07	1.039910498633742e-06	8.348915398573749e-07
